# xmcd
#
# Track frame offsets: 
#        150
#        17122
#        38232
#        54360
#        71902
#        87342
#        104972
#        124752
#        142655
#        174917
#
# Disc length: 2508 seconds
#
# Revision: 1
# Processed by: cddbd v1.5.2PL0 Copyright (c) Steve Scherf et al.
# Submitted via: ExactAudioCopy v0.95b3
#
DISCID=8709ca0a
DTITLE=Panagopoulos Dhmhtrhs and AURA - Ekdysis
DYEAR=1998
DGENRE=Blues
TTITLE0=Magissa Nyxta
TTITLE1=Hrwiko
TTITLE2=Anatolh
TTITLE3=Sa Mousikh
TTITLE4=Erwtwn Polh
TTITLE5=Vradynh Fygh
TTITLE6=Aga9ino Stefani
TTITLE7=Ellada
TTITLE8=Ekdysh
TTITLE9=Monopatia
EXTD=YEAR: 2001
EXTT0=
EXTT1=
EXTT2=
EXTT3=
EXTT4=
EXTT5=
EXTT6=
EXTT7=
EXTT8=
EXTT9=
PLAYORDER=
